<?xml version="1.0" encoding="UTF-8" standalone="no"?>
<svg
   xmlns:dc="http://purl.org/dc/elements/1.1/"
   xmlns:cc="http://creativecommons.org/ns#"
   xmlns:rdf="http://www.w3.org/1999/02/22-rdf-syntax-ns#"
   xmlns:svg="http://www.w3.org/2000/svg"
   xmlns="http://www.w3.org/2000/svg"
   xmlns:sodipodi="http://sodipodi.sourceforge.net/DTD/sodipodi-0.dtd"
   xmlns:inkscape="http://www.inkscape.org/namespaces/inkscape"
   sodipodi:docname="Computer.svg"
   inkscape:version="1.0 (4035a4fb49, 2020-05-01)"
   id="svg8"
   version="1.1"
   viewBox="0 0 508 285.75"
   height="1080"
   width="1920">
  <defs
     id="defs2">
    <rect
       id="rect881"
       height="40"
       width="103.92305"
       y="120"
       x="-51.961524" />
  </defs>
  <sodipodi:namedview
     inkscape:window-maximized="1"
     inkscape:window-y="-8"
     inkscape:window-x="-8"
     inkscape:window-height="1017"
     inkscape:window-width="1920"
     inkscape:pagecheckerboard="false"
     units="px"
     showgrid="true"
     inkscape:document-rotation="0"
     inkscape:current-layer="layer1"
     inkscape:document-units="px"
     inkscape:cy="288.77312"
     inkscape:cx="881.08116"
     inkscape:zoom="2.3228396"
     inkscape:pageshadow="2"
     inkscape:pageopacity="0.0"
     borderopacity="1.0"
     bordercolor="#666666"
     pagecolor="#ffffff"
     id="base">
    <inkscape:grid
       visible="false"
       empspacing="5"
       spacingy="10"
       id="grid833"
       type="axonomgrid" />
    <inkscape:grid
       empspacing="3"
       visible="true"
       id="grid910"
       type="axonomgrid" />
  </sodipodi:namedview>
  <metadata
     id="metadata5">
    <rdf:RDF>
      <cc:Work
         rdf:about="">
        <dc:format>image/svg+xml</dc:format>
        <dc:type
           rdf:resource="http://purl.org/dc/dcmitype/StillImage" />
        <dc:title></dc:title>
      </cc:Work>
    </rdf:RDF>
  </metadata>
  <g
     id="layer1"
     inkscape:groupmode="layer"
     inkscape:label="Layer 1">
    <g
       id="g916">
      <path
         style="fill:#3d3d3d;fill-opacity:1;stroke:#000000;stroke-width:0.264583px;stroke-linecap:butt;stroke-linejoin:miter;stroke-opacity:1"
         d="M 346.41017,200 V 100 L 216.50635,25 V 125 Z"
         id="path835" />
      <path
         style="fill:#94c2f7;fill-opacity:1;stroke:#000000;stroke-width:0.264583px;stroke-linecap:butt;stroke-linejoin:miter;stroke-opacity:1"
         d="M 225.1666,39.999999 V 120 L 337.74991,185 V 105 Z"
         id="path837" />
      <path
         style="fill:#c3c3c3;fill-opacity:1;stroke:none;stroke-width:0.264583px;stroke-linecap:butt;stroke-linejoin:miter;stroke-opacity:1"
         d="M 216.50635,25 225.1666,20 355.07041,94.999999 346.41017,100 Z"
         id="path839" />
      <path
         style="fill:#a2a2a2;fill-opacity:1;stroke:none;stroke-width:0.264583px;stroke-linecap:butt;stroke-linejoin:miter;stroke-opacity:1"
         d="M 355.07041,94.999999 V 195 L 346.41017,200 V 100 Z"
         id="path841" />
      <path
         style="fill:#e6e6e6;stroke:none;stroke-width:0.264583px;stroke-linecap:butt;stroke-linejoin:miter;stroke-opacity:1"
         d="M 216.50635,125 129.90381,175 259.80762,250 346.41017,200 Z"
         id="path843" />
      <path
         style="fill:#cccccc;stroke:none;stroke-width:0.264583px;stroke-linecap:butt;stroke-linejoin:miter;stroke-opacity:1"
         d="M 129.90381,175 V 185 L 259.80762,260 V 250 Z"
         id="path845" />
      <path
         style="fill:#a2a2a2;fill-opacity:1;stroke:none;stroke-width:0.264583px;stroke-linecap:butt;stroke-linejoin:miter;stroke-opacity:1"
         d="M 259.80762,250 V 260 L 355.07041,205 V 195 Z"
         id="path847" />
      <path
         style="fill:#969696;fill-opacity:0.576613;stroke:none;stroke-width:0.264583px;stroke-linecap:butt;stroke-linejoin:miter;stroke-opacity:1"
         d="M 216.50635,135 329.08965,200 285.78839,225 173.20508,160 Z"
         id="path849" />
      <path
         style="fill:#b7b7b7;fill-opacity:1;stroke:#4e4e4e;stroke-width:0.264583px;stroke-linecap:butt;stroke-linejoin:miter;stroke-opacity:1"
         d="M 199.18584,185 242.48711,210 225.1666,220 181.86533,195 Z"
         id="path851" />
      <path
         style="fill:#cccccc;fill-opacity:0.306785;stroke:none;stroke-width:0.264583px;stroke-linecap:butt;stroke-linejoin:miter;stroke-opacity:1"
         d="M 355.07041,94.999999 V 205 L 441.67295,155 450.33321,150 Z"
         id="path906" />
      <path
         style="fill:#282828;fill-opacity:1;stroke:#000000;stroke-width:0.264583px;stroke-linecap:butt;stroke-linejoin:miter;stroke-opacity:1"
         d="M 179.26726,160.5 187.06149,156 197.45379,162 189.65956,166.5 Z"
         id="path918" />
      <path
         id="path918-5"
         d="M 192.25764,168 200.05187,163.5 210.44417,169.5 202.64994,174 Z"
         style="fill:#282828;fill-opacity:1;stroke:#000000;stroke-width:0.264583px;stroke-linecap:butt;stroke-linejoin:miter;stroke-opacity:1" />
      <path
         style="fill:#282828;fill-opacity:1;stroke:#000000;stroke-width:0.264583px;stroke-linecap:butt;stroke-linejoin:miter;stroke-opacity:1"
         d="M 205.24802,175.5 213.04225,171 257.20954,196.5 249.41531,201 Z"
         id="path941" />
      <path
         style="fill:#282828;fill-opacity:1;stroke:#000000;stroke-width:0.264583px;stroke-linecap:butt;stroke-linejoin:miter;stroke-opacity:1"
         d="M 252.0134,202.5 259.80763,198 270.19993,204 262.4057,208.5 Z"
         id="path918-5-2" />
      <path
         style="fill:#282828;fill-opacity:1;stroke:#000000;stroke-width:0.264583px;stroke-linecap:butt;stroke-linejoin:miter;stroke-opacity:1"
         d="M 272.79801,205.5 285.78838,213 296.18069,207 303.97492,211.5 285.78838,222 265.00378,210 Z"
         id="path958"
         sodipodi:nodetypes="ccccccc" />
      <path
         id="path918-9"
         d="M 189.65956,154.5 197.45379,150 215.64033,160.5 207.8461,165 Z"
         style="fill:#282828;fill-opacity:1;stroke:#000000;stroke-width:0.264583px;stroke-linecap:butt;stroke-linejoin:miter;stroke-opacity:1"
         sodipodi:nodetypes="ccccc" />
      <path
         style="fill:#282828;fill-opacity:1;stroke:#000000;stroke-width:0.264583px;stroke-linecap:butt;stroke-linejoin:miter;stroke-opacity:1"
         d="M 210.44418,166.5 218.23841,162 228.63071,168 220.83648,172.5 Z"
         id="path918-5-8" />
      <path
         style="fill:#282828;fill-opacity:1;stroke:#000000;stroke-width:0.264583px;stroke-linecap:butt;stroke-linejoin:miter;stroke-opacity:1"
         d="M 223.43456,174 231.22879,169.5 241.62109,175.5 233.82686,180 Z"
         id="path918-5-5" />
      <path
         style="fill:#282828;fill-opacity:1;stroke:#000000;stroke-width:0.264583px;stroke-linecap:butt;stroke-linejoin:miter;stroke-opacity:1"
         d="M 236.42494,181.5 244.21917,177 254.61147,183 246.81724,187.5 Z"
         id="path918-5-6" />
      <path
         style="fill:#282828;fill-opacity:1;stroke:#000000;stroke-width:0.264583px;stroke-linecap:butt;stroke-linejoin:miter;stroke-opacity:1"
         d="M 249.41532,189 257.20955,184.5 267.60185,190.5 259.80762,195 Z"
         id="path918-5-0" />
      <path
         style="fill:#282828;fill-opacity:1;stroke:#000000;stroke-width:0.264583px;stroke-linecap:butt;stroke-linejoin:miter;stroke-opacity:1"
         d="M 262.4057,196.5 270.19993,192 280.59223,198 272.798,202.5 Z"
         id="path918-5-59" />
      <path
         style="fill:#282828;fill-opacity:1;stroke:#000000;stroke-width:0.264583px;stroke-linecap:butt;stroke-linejoin:miter;stroke-opacity:1"
         d="M 275.39608,204 283.19031,199.5 293.58261,205.5 285.78838,210 Z"
         id="path918-5-1" />
      <path
         id="path918-5-8-3"
         d="M 200.05187,148.5 207.8461,144 218.2384,150 210.44417,154.5 Z"
         style="fill:#282828;fill-opacity:1;stroke:#000000;stroke-width:0.264583px;stroke-linecap:butt;stroke-linejoin:miter;stroke-opacity:1" />
      <path
         id="path918-5-8-6"
         d="M 210.44418,142.5 218.23841,138 228.63071,144 220.83648,148.5 Z"
         style="fill:#282828;fill-opacity:1;stroke:#000000;stroke-width:0.264583px;stroke-linecap:butt;stroke-linejoin:miter;stroke-opacity:1" />
      <path
         id="path918-5-8-5"
         d="M 213.04225,156 220.83648,151.5 231.22878,157.5 223.43455,162 Z"
         style="fill:#282828;fill-opacity:1;stroke:#000000;stroke-width:0.264583px;stroke-linecap:butt;stroke-linejoin:miter;stroke-opacity:1" />
      <path
         style="fill:#282828;fill-opacity:1;stroke:#000000;stroke-width:0.264583px;stroke-linecap:butt;stroke-linejoin:miter;stroke-opacity:1"
         d="M 223.43456,150 231.22879,145.5 241.62109,151.5 233.82686,156 Z"
         id="path918-5-8-5-2" />
      <path
         style="fill:#282828;fill-opacity:1;stroke:#000000;stroke-width:0.264583px;stroke-linecap:butt;stroke-linejoin:miter;stroke-opacity:1"
         d="M 226.03263,163.5 233.82686,159 244.21916,165 236.42493,169.5 Z"
         id="path918-5-8-5-0" />
      <path
         style="fill:#282828;fill-opacity:1;stroke:#000000;stroke-width:0.264583px;stroke-linecap:butt;stroke-linejoin:miter;stroke-opacity:1"
         d="M 236.42494,157.5 244.21917,153 254.61147,159 246.81724,163.5 Z"
         id="path918-5-8-5-3" />
      <path
         style="fill:#282828;fill-opacity:1;stroke:#000000;stroke-width:0.264583px;stroke-linecap:butt;stroke-linejoin:miter;stroke-opacity:1"
         d="M 239.02301,171 246.81724,166.5 257.20954,172.5 249.41531,177 Z"
         id="path918-5-8-5-03" />
      <path
         style="fill:#282828;fill-opacity:1;stroke:#000000;stroke-width:0.264583px;stroke-linecap:butt;stroke-linejoin:miter;stroke-opacity:1"
         d="M 249.41532,165 257.20955,160.5 267.60185,166.5 259.80762,171 Z"
         id="path918-5-8-5-32" />
      <path
         style="fill:#282828;fill-opacity:1;stroke:#000000;stroke-width:0.264583px;stroke-linecap:butt;stroke-linejoin:miter;stroke-opacity:1"
         d="M 252.0134,178.5 259.80763,174 270.19993,180 262.4057,184.5 Z"
         id="path918-5-8-5-1" />
      <path
         style="fill:#282828;fill-opacity:1;stroke:#000000;stroke-width:0.264583px;stroke-linecap:butt;stroke-linejoin:miter;stroke-opacity:1"
         d="M 262.4057,172.5 270.19993,168 280.59223,174 272.798,178.5 Z"
         id="path918-5-8-5-4" />
      <path
         style="fill:#282828;fill-opacity:1;stroke:#000000;stroke-width:0.264583px;stroke-linecap:butt;stroke-linejoin:miter;stroke-opacity:1"
         d="M 265.00378,186 272.79801,181.5 283.19031,187.5 275.39608,192 Z"
         id="path918-5-8-5-24" />
      <path
         style="fill:#282828;fill-opacity:1;stroke:#000000;stroke-width:0.264583px;stroke-linecap:butt;stroke-linejoin:miter;stroke-opacity:1"
         d="M 275.39608,180 283.19031,175.5 293.58261,181.5 285.78838,186 Z"
         id="path918-5-8-5-5" />
      <path
         style="fill:#282828;fill-opacity:1;stroke:#000000;stroke-width:0.264583px;stroke-linecap:butt;stroke-linejoin:miter;stroke-opacity:1"
         d="M 277.99415,193.5 285.78838,189 314.36722,205.5 306.57299,210 Z"
         id="path918-5-8-5-25"
         sodipodi:nodetypes="ccccc" />
      <path
         style="fill:#282828;fill-opacity:1;stroke:#000000;stroke-width:0.264583px;stroke-linecap:butt;stroke-linejoin:miter;stroke-opacity:1"
         d="M 288.38646,187.5 296.18069,183 306.57299,189 298.77876,193.5 Z"
         id="path918-5-8-5-7" />
      <path
         style="fill:#282828;fill-opacity:1;stroke:#000000;stroke-width:0.264583px;stroke-linecap:butt;stroke-linejoin:miter;stroke-opacity:1"
         d="M 301.37685,195 309.17108,190.5 324.75953,199.5 316.9653,204 Z"
         id="path918-5-8-5-74"
         sodipodi:nodetypes="ccccc" />
    </g>
    <path
       id="path871"
       d="M 231.22878,49.499998 236.42493,52.5 V 61.499998 L 241.62108,64.5 V 55.499999 L 246.81724,58.499999 V 79.499999 L 241.62108,76.499999 V 70.499998 L 236.42493,67.499999 V 73.5 L 231.22878,70.499998 Z"
       style="fill:#666666;stroke:#000000;stroke-width:0.264583px;stroke-linecap:butt;stroke-linejoin:miter;stroke-opacity:1" />
  </g>
</svg>
